<?xml version="1.0" encoding="utf-8"?>
<!-- Generator: Adobe Illustrator 15.0.0, SVG Export Plug-In . SVG Version: 6.00 Build 0)  -->
<!DOCTYPE svg PUBLIC "-//W3C//DTD SVG 1.1//EN" "http://www.w3.org/Graphics/SVG/1.1/DTD/svg11.dtd">
<svg version="1.1" id="Layer_1" xmlns="http://www.w3.org/2000/svg" xmlns:xlink="http://www.w3.org/1999/xlink" x="0px" y="0px"
	 width="215px" height="30px" viewBox="0 0 215 30" enable-background="new 0 0 215 30" xml:space="preserve">
<g>
	<path fill="#FFFFFF" d="M11.9,12.744c0,4.168-2.22,9.042-6.226,9.042c-3.329,0-4.06-2.626-4.06-4.575
		c0-4.493,2.463-9.122,6.469-9.122C11.413,8.088,11.9,10.876,11.9,12.744z M4.944,17.048c0,0.975,0.054,2.165,1.083,2.165
		c1.651,0,2.544-4.52,2.544-6.902c0-0.893-0.216-1.651-1.056-1.651C6.054,10.66,4.917,14.774,4.944,17.048z"/>
	<path fill="#FFFFFF" d="M11.6,26.766l2.707-14.076c0.271-1.542,0.487-3.059,0.704-4.358h2.87l-0.189,1.922h0.054
		c0.812-1.299,2.084-2.138,3.302-2.138c2.382,0,2.842,2.084,2.842,4.087c0,4.439-2.382,9.583-6.253,9.583
		c-0.596,0-1.245-0.108-1.624-0.325h-0.082l-0.974,5.306H11.6z M16.418,18.942c0.271,0.189,0.542,0.325,0.948,0.325
		c2.057,0,3.059-4.494,3.059-6.47c0-0.893-0.081-1.813-0.975-1.813c-0.866,0-1.813,1.38-2.111,2.978L16.418,18.942z"/>
	<path fill="#FFFFFF" d="M33.496,21c-1.164,0.487-2.301,0.73-3.79,0.73c-3.275,0-4.521-2.138-4.521-4.98
		c0-3.844,2.138-8.662,6.361-8.662c2.409,0,3.465,1.813,3.492,3.627c0,3.627-2.896,4.981-6.578,4.873
		c0,0.379,0.027,1.056,0.325,1.543c0.298,0.541,0.92,0.947,1.813,0.947c1.11,0,1.868-0.271,2.68-0.649L33.496,21z M31.114,10.822
		c-1.029,0-1.949,1.299-2.328,3.221c1.787,0.082,3.275-0.623,3.275-2.03C32.062,11.255,31.764,10.822,31.114,10.822z"/>
	<path fill="#FFFFFF" d="M35.308,21.568l1.678-8.933c0.298-1.543,0.514-3.032,0.704-4.304h2.896l-0.135,1.706h0.054
		c0.92-1.218,2.166-1.922,3.573-1.922c1.895,0,2.571,1.326,2.571,2.896c0,0.785-0.135,1.597-0.298,2.518l-1.516,8.04h-3.384
		l1.543-8.229c0.108-0.46,0.163-0.893,0.163-1.408c0-0.623-0.244-1.056-0.812-1.056c-0.785,0-1.868,1.164-2.355,3.682l-1.299,7.011
		H35.308z"/>
	<path fill="#FFFFFF" d="M52.141,18.672c0.515,0.298,1.191,0.568,2.139,0.541c0.975-0.026,1.516-0.649,1.516-1.488
		c0-0.73-0.352-1.245-1.272-1.977c-1.164-0.92-1.678-2.084-1.678-3.221c0-2.437,1.895-4.439,4.899-4.439
		c1.137,0,2.003,0.217,2.49,0.514l-0.731,2.463c-0.379-0.216-1.028-0.406-1.57-0.406c-1.083,0-1.759,0.568-1.759,1.461
		c0,0.677,0.379,1.083,1.001,1.597c1.489,1.137,1.976,2.436,1.976,3.465c0,2.923-2.03,4.547-5.062,4.547
		c-1.218,0-2.301-0.352-2.761-0.677L52.141,18.672z"/>
	<path fill="#FFFFFF" d="M71.223,12.744c0,4.168-2.22,9.042-6.226,9.042c-3.329,0-4.06-2.626-4.06-4.575
		c0-4.493,2.463-9.122,6.469-9.122C70.735,8.088,71.223,10.876,71.223,12.744z M64.266,17.048c0,0.975,0.054,2.165,1.083,2.165
		c1.651,0,2.544-4.52,2.544-6.902c0-0.893-0.216-1.651-1.056-1.651C65.376,10.66,64.239,14.774,64.266,17.048z"/>
	<path fill="#FFFFFF" d="M83.78,8.332l-1.705,8.933c-0.298,1.543-0.487,3.031-0.677,4.304h-2.896l0.108-1.76l-0.054-0.054
		c-0.975,1.407-2.193,2.03-3.438,2.03c-1.759,0-2.518-1.326-2.518-3.059c0-0.84,0.136-1.732,0.325-2.734l1.435-7.661h3.384
		l-1.435,7.525c-0.135,0.812-0.244,1.489-0.244,2.139c0,0.623,0.244,1.028,0.812,1.028c0.866,0,1.732-1.137,2.084-3.004l1.435-7.688
		H83.78z"/>
	<path fill="#FFFFFF" d="M84.076,21.568l1.732-8.987c0.271-1.489,0.487-3.005,0.649-4.25h2.896
		c-0.054,0.704-0.081,1.408-0.189,2.193h0.081c0.975-1.679,2.166-2.437,3.275-2.437c0.217,0,0.379,0.027,0.568,0.054l-0.649,3.411
		c-0.108-0.027-0.379-0.054-0.568-0.054c-1.462,0-2.842,1.706-3.249,3.952l-1.164,6.118H84.076z"/>
	<path fill="#FFFFFF" d="M99.206,21.379c-0.406,0.136-1.272,0.352-2.382,0.352c-2.924,0-4.142-2.328-4.142-4.736
		c0-4.765,2.978-8.852,7.119-8.852c0.812,0,1.354,0.108,1.678,0.244l-0.839,2.761c-0.352-0.082-0.649-0.136-0.974-0.136
		c-1.976,0-3.573,2.653-3.573,5.496c0,1.488,0.596,2.463,1.705,2.463c0.623,0,1.191-0.189,1.625-0.298L99.206,21.379z"/>
	<path fill="#FFFFFF" d="M109.49,21c-1.164,0.487-2.301,0.73-3.79,0.73c-3.275,0-4.521-2.138-4.521-4.98
		c0-3.844,2.138-8.662,6.361-8.662c2.409,0,3.464,1.813,3.492,3.627c0,3.627-2.896,4.981-6.578,4.873
		c0,0.379,0.027,1.056,0.325,1.543c0.298,0.541,0.92,0.947,1.813,0.947c1.11,0,1.868-0.271,2.68-0.649L109.49,21z M107.108,10.822
		c-1.029,0-1.949,1.299-2.328,3.221c1.787,0.082,3.275-0.623,3.275-2.03C108.056,11.255,107.758,10.822,107.108,10.822z"/>
	<path fill="#FFFFFF" d="M115.93,21.568l2.192-11.585h-1.624l0.271-1.516h1.651l0.162-0.812c0.271-1.435,0.812-2.923,1.813-3.925
		c0.677-0.677,1.651-1.11,2.762-1.11c0.622,0,1.137,0.108,1.38,0.216l-0.46,1.57c-0.271-0.082-0.541-0.136-1.002-0.136
		c-1.488,0-2.354,1.814-2.625,3.573l-0.108,0.623h2.49l-0.271,1.516h-2.49l-2.22,11.585H115.93z"/>
	<path fill="#FFFFFF" d="M131.006,12.527c0,3.329-1.624,9.258-5.658,9.258c-2.408,0-3.167-2.111-3.167-4.439
		c0-3.519,1.868-9.068,5.793-9.068C130.6,8.277,131.006,10.768,131.006,12.527z M124.157,17.156c0,1.488,0.108,3.031,1.488,3.031
		c2.383,0,3.384-5.576,3.384-7.769c0-1.354-0.243-2.544-1.38-2.544C125.483,9.875,124.157,14.584,124.157,17.156z"/>
	<path fill="#FFFFFF" d="M132.032,21.568l1.65-8.797c0.325-1.76,0.487-3.33,0.569-4.304h1.705c-0.055,0.677-0.081,1.381-0.217,2.463
		h0.081c0.812-1.624,1.949-2.68,3.275-2.68c0.108,0,0.244,0,0.353,0.027l-0.38,2.057c-0.054,0-0.189-0.027-0.271-0.027
		c-1.732,0-3.167,2.436-3.546,4.385l-1.272,6.875H132.032z"/>
	<path fill="#FFFFFF" d="M143.507,18.672c0.515,0.298,1.191,0.568,2.139,0.541c0.975-0.026,1.516-0.649,1.516-1.488
		c0-0.73-0.352-1.245-1.272-1.977c-1.163-0.92-1.678-2.084-1.678-3.221c0-2.437,1.895-4.439,4.899-4.439
		c1.137,0,2.003,0.217,2.49,0.514l-0.73,2.463c-0.379-0.216-1.029-0.406-1.57-0.406c-1.083,0-1.76,0.568-1.76,1.461
		c0,0.677,0.379,1.083,1.002,1.597c1.488,1.137,1.976,2.436,1.976,3.465c0,2.923-2.03,4.547-5.062,4.547
		c-1.218,0-2.301-0.352-2.761-0.677L143.507,18.672z"/>
	<path fill="#FFFFFF" d="M151.896,21.568l3.546-18.732h3.384l-1.354,7.119l0.054,0.027c0.785-1.083,1.896-1.868,3.33-1.868
		c1.651,0,2.382,1.191,2.382,2.896c0,0.758-0.108,1.597-0.298,2.599l-1.516,7.958h-3.384l1.516-7.958
		c0.082-0.514,0.163-1.245,0.163-1.678c0-0.649-0.244-1.056-0.785-1.056c-0.785,0-1.813,1.137-2.22,3.14l-1.435,7.552H151.896z"/>
	<path fill="#FFFFFF" d="M174.982,12.744c0,4.168-2.219,9.042-6.226,9.042c-3.329,0-4.061-2.626-4.061-4.575
		c0-4.493,2.464-9.122,6.47-9.122C174.496,8.088,174.982,10.876,174.982,12.744z M168.026,17.048c0,0.975,0.054,2.165,1.083,2.165
		c1.65,0,2.544-4.52,2.544-6.902c0-0.893-0.217-1.651-1.056-1.651C169.136,10.66,167.999,14.774,168.026,17.048z"/>
	<path fill="#FFFFFF" d="M174.684,26.766l2.707-14.076c0.271-1.542,0.486-3.059,0.703-4.358h2.869l-0.189,1.922h0.055
		c0.812-1.299,2.084-2.138,3.303-2.138c2.382,0,2.842,2.084,2.842,4.087c0,4.439-2.382,9.583-6.253,9.583
		c-0.596,0-1.245-0.108-1.624-0.325h-0.081l-0.975,5.306H174.684z M179.502,18.942c0.271,0.189,0.541,0.325,0.947,0.325
		c2.057,0,3.059-4.494,3.059-6.47c0-0.893-0.081-1.813-0.975-1.813c-0.866,0-1.813,1.38-2.111,2.978L179.502,18.942z"/>
	<path fill="#FFFFFF" d="M187.7,21.568l2.545-13.237h3.384l-2.545,13.237H187.7z M190.867,4.948
		c0.027-0.974,0.704-2.084,1.896-2.084c1.109,0,1.597,0.839,1.597,1.759c-0.027,1.354-0.947,2.111-1.976,2.111
		C191.328,6.734,190.867,5.95,190.867,4.948z"/>
	<path fill="#FFFFFF" d="M194.385,21.568l2.058-10.854h-1.76l0.433-2.409h1.787l0.108-0.515c0.324-1.57,0.893-2.923,2.003-3.952
		c0.812-0.758,2.03-1.218,3.356-1.218c0.894,0,1.543,0.135,1.949,0.271l-0.785,2.599c-0.298-0.108-0.596-0.162-1.056-0.162
		c-1.219,0-1.922,1.272-2.111,2.436l-0.108,0.542h2.544l-0.433,2.409h-2.545l-2.057,10.854H194.385z"/>
	<path fill="#FFFFFF" d="M206.537,8.332l0.081,6.361c0.027,1.245,0.055,2.166,0.027,3.14h0.055c0.271-1.083,0.541-1.977,0.974-3.384
		l2.03-6.118h3.384l-4.304,10.421c-1.3,3.032-2.815,5.604-4.412,7.093c-0.785,0.73-1.706,1.299-2.274,1.543l-1.354-2.762
		c0.596-0.324,1.219-0.677,1.76-1.109c0.785-0.596,1.489-1.381,1.813-2.111c0.055-0.163,0.108-0.325,0.081-0.568l-1.38-12.506
		H206.537z"/>
</g>
</svg>
